<?xml version="1.0" standalone="no"?>
<!DOCTYPE svg PUBLIC "-//W3C//DTD SVG 20010904//EN"
 "http://www.w3.org/TR/2001/REC-SVG-20010904/DTD/svg10.dtd">
<svg version="1.0" xmlns="http://www.w3.org/2000/svg"
 width="2880.000000pt" height="2880.000000pt" viewBox="0 0 2880.000000 2880.000000"
 preserveAspectRatio="xMidYMid meet">
<metadata>
Created by potrace 1.14, written by Peter Selinger 2001-2017
</metadata>
<g transform="translate(0.000000,2880.000000) scale(0.100000,-0.100000)"
fill="#000000" stroke="none">
<path d="M0 14400 l0 -14400 14400 0 14400 0 0 14400 0 14400 -14400 0 -14400
0 0 -14400z m11039 12726 c-49 -197 -88 -360 -86 -362 2 -2 138 -13 303 -24
2602 -174 3826 -416 4946 -976 517 -259 945 -566 1310 -942 794 -818 1153
-1839 1100 -3130 -61 -1480 -464 -3052 -1156 -4512 -59 -124 -114 -235 -122
-247 -8 -12 -14 -24 -14 -26 0 -2 107 18 238 44 130 27 354 70 497 95 l260 47
934 389 c514 213 935 387 937 385 1 -1 -37 -162 -86 -357 -49 -195 -86 -358
-82 -361 4 -3 131 -13 282 -23 1347 -83 2439 -212 3205 -376 1189 -255 2117
-687 2846 -1326 381 -334 733 -799 941 -1242 380 -812 472 -1685 312 -2957
-240 -1898 -1037 -3939 -2064 -5284 -182 -239 -377 -458 -596 -670 -1245
-1207 -3248 -2340 -5184 -2931 -673 -205 -1346 -309 -2365 -365 -906 -49
-1445 -56 -4440 -62 l-2770 -4 65 65 c36 35 316 305 623 599 l559 534 96 7
c285 20 708 74 957 122 1334 257 2013 855 2590 2284 255 631 532 1575 805
2740 29 124 1734 6907 1980 7878 l18 74 -46 -6 c-386 -47 -502 -63 -702 -97
-129 -22 -249 -43 -267 -47 -28 -6 -47 -30 -144 -172 -236 -349 -447 -608
-723 -889 -450 -457 -943 -855 -1606 -1296 -487 -323 -938 -584 -1500 -868
-184 -92 -335 -169 -336 -170 -1 -1 -21 -69 -43 -152 -147 -533 -217 -1212
-191 -1839 14 -350 42 -565 120 -936 23 -107 44 -211 47 -230 l5 -36 -1048
-473 c-577 -261 -1056 -476 -1065 -478 -13 -4 -23 28 -57 184 -62 285 -99 516
-124 778 -18 199 -15 818 6 1045 42 458 126 888 246 1265 16 49 28 90 26 92
-1 1 -34 -6 -72 -17 -119 -34 -421 -98 -634 -134 -676 -114 -1451 -167 -2900
-197 -740 -15 -5744 -25 -5739 -11 2 6 195 194 429 418 234 224 511 489 615
590 l191 183 179 16 c1323 117 2049 386 2611 966 624 645 1062 1712 1584 3854
51 209 537 2150 1081 4313 544 2163 989 3937 989 3943 0 27 -597 -55 -1035
-142 -986 -196 -1798 -511 -2468 -956 -1083 -720 -1743 -1756 -1967 -3085 -63
-378 -83 -636 -84 -1083 0 -512 24 -741 135 -1259 23 -103 37 -192 32 -196
-12 -12 -2116 -961 -2120 -956 -7 6 -82 369 -108 518 -52 299 -75 586 -75 934
-1 2082 920 3732 2855 5119 747 535 1567 971 2425 1287 729 269 1606 493 2666
682 l190 34 935 389 c513 215 935 389 936 389 1 -1 -39 -163 -88 -360z"/>
<path d="M10726 25898 c-17 -62 -1337 -5273 -1620 -6398 -206 -820 -287 -1131
-392 -1507 -459 -1648 -820 -2372 -1649 -3303 -270 -304 -892 -914 -1677
-1646 -141 -131 -255 -241 -253 -243 2 -2 770 -28 1707 -58 1487 -47 1752 -53
2093 -48 802 12 1328 53 1862 147 l126 21 26 45 c352 602 880 1209 1511 1738
720 603 1644 1169 2507 1535 l151 64 66 136 c128 266 253 564 386 924 635
1716 921 3710 719 5018 -218 1417 -991 2535 -2114 3054 -663 307 -1358 449
-2615 532 -354 24 -668 41 -757 41 l-62 0 -15 -52z"/>
<path d="M19800 16337 c0 -3 -315 -1248 -701 -2768 -385 -1520 -765 -3025
-845 -3344 -506 -2024 -696 -2675 -987 -3380 -79 -194 -274 -584 -375 -751
-426 -707 -909 -1234 -2426 -2649 l-279 -260 69 -3 c689 -27 3331 -102 3591
-102 2057 1 3374 344 4446 1157 528 401 1082 1017 1461 1624 857 1373 1476
3342 1631 5194 68 822 29 1490 -126 2105 -301 1202 -1007 2119 -1993 2590
-696 332 -1502 487 -2951 564 -492 27 -515 28 -515 23z"/>
<path d="M14344 15082 c-466 -314 -845 -678 -1156 -1112 -89 -125 -181 -270
-171 -270 5 0 65 42 135 93 355 259 710 598 1038 992 120 144 294 374 288 380
-2 3 -63 -35 -134 -83z"/>
</g>
</svg>
